HIERARCHY
ROOT Hips
{
	OFFSET 0.000000 0.000000 0.000000
	CHANNELS 6 Xposition Yposition Zposition Zrotation Yrotation Xrotation 
	JOINT LHipJoint
	{
		OFFSET 0.000000 0.000000 0.000000
		CHANNELS 3 Zrotation Yrotation Xrotation
		JOINT LeftUpLeg
		{
			OFFSET 1.363060 -1.794630 0.839290
			CHANNELS 3 Zrotation Yrotation Xrotation
			JOINT LeftLeg
			{
				OFFSET 2.448110 -6.726130 0.000000
				CHANNELS 3 Zrotation Yrotation Xrotation
				JOINT LeftFoot
				{
					OFFSET 2.562200 -7.039590 0.000000
					CHANNELS 3 Zrotation Yrotation Xrotation
					JOINT LeftToeBase
					{
						OFFSET 0.157640 -0.433110 2.322550
						CHANNELS 3 Zrotation Yrotation Xrotation
						End Site
						{
							OFFSET 0.000000 0.000000 0.000000
						}
					}
				}
			}
		}
	}
	JOINT RHipJoint
	{
		OFFSET 0.000000 0.000000 0.000000
		CHANNELS 3 Zrotation Yrotation Xrotation
		JOINT RightUpLeg
		{
			OFFSET -1.305520 -1.794630 0.839290
			CHANNELS 3 Zrotation Yrotation Xrotation
			JOINT RightLeg
			{
				OFFSET -2.542530 -6.985550 0.000000
				CHANNELS 3 Zrotation Yrotation Xrotation
				JOINT RightFoot
				{
					OFFSET -2.568260 -7.056230 0.000000
					CHANNELS 3 Zrotation Yrotation Xrotation
					JOINT RightToeBase
					{
						OFFSET -0.164730 -0.452590 2.363150
						CHANNELS 3 Zrotation Yrotation Xrotation
						End Site
						{
							OFFSET 0.000000 0.000000 0.000000
						}
					}
				}
			}
		}
	}
	JOINT LowerBack
	{
		OFFSET 0.000000 0.000000 0.000000
		CHANNELS 3 Zrotation Yrotation Xrotation
		JOINT Spine
		{
			OFFSET 0.028270 2.035590 -0.193380
			CHANNELS 3 Zrotation Yrotation Xrotation
			JOINT Spine1
			{
				OFFSET 0.056720 2.048850 -0.042750
				CHANNELS 3 Zrotation Yrotation Xrotation
				JOINT Neck
				{
					OFFSET 0.000000 0.000000 0.000000
					CHANNELS 3 Zrotation Yrotation Xrotation
					JOINT Neck1
					{
						OFFSET -0.054170 1.746240 0.172020
						CHANNELS 3 Zrotation Yrotation Xrotation
						JOINT Head
						{
							OFFSET 0.104070 1.761360 -0.123970
							CHANNELS 3 Zrotation Yrotation Xrotation
							End Site
							{
								OFFSET 0.000000 0.000000 0.000000
							}
						}
					}
				}
				JOINT LeftShoulder
				{
					OFFSET 0.000000 0.000000 0.000000
					CHANNELS 3 Zrotation Yrotation Xrotation
					JOINT LeftArm
					{
						OFFSET 3.362410 1.200890 -0.311210
						CHANNELS 3 Zrotation Yrotation Xrotation
						JOINT LeftForeArm
						{
							OFFSET 4.983000 -0.000000 -0.000000
							CHANNELS 3 Zrotation Yrotation Xrotation
							JOINT LeftHand
							{
								OFFSET 3.483560 -0.000000 -0.000000
								CHANNELS 3 Zrotation Yrotation Xrotation
								JOINT LeftFingerBase
								{
									OFFSET 0.000000 0.000000 0.000000
									CHANNELS 3 Zrotation Yrotation Xrotation
									JOINT LeftHandIndex1
									{
										OFFSET 0.715260 -0.000000 -0.000000
										CHANNELS 3 Zrotation Yrotation Xrotation
										End Site
										{
											OFFSET 0.000000 0.000000 0.000000
										}
									}
								}
								JOINT LThumb
								{
									OFFSET 0.000000 0.000000 0.000000
									CHANNELS 3 Zrotation Yrotation Xrotation
									End Site
									{
										OFFSET 0.000000 0.000000 0.000000
									}
								}
							}
						}
					}
				}
				JOINT RightShoulder
				{
					OFFSET 0.000000 0.000000 0.000000
					CHANNELS 3 Zrotation Yrotation Xrotation
					JOINT RightArm
					{
						OFFSET -3.136600 1.374050 -0.404650
						CHANNELS 3 Zrotation Yrotation Xrotation
						JOINT RightForeArm
						{
							OFFSET -5.241900 -0.000000 -0.000000
							CHANNELS 3 Zrotation Yrotation Xrotation
							JOINT RightHand
							{
								OFFSET -3.444170 -0.000000 -0.000000
								CHANNELS 3 Zrotation Yrotation Xrotation
								JOINT RightFingerBase
								{
									OFFSET 0.000000 0.000000 0.000000
									CHANNELS 3 Zrotation Yrotation Xrotation
									JOINT RightHandIndex1
									{
										OFFSET -0.622530 -0.000000 -0.000000
										CHANNELS 3 Zrotation Yrotation Xrotation
										End Site
										{
											OFFSET 0.000000 0.000000 0.000000
										}
									}
								}
								JOINT RThumb
								{
									OFFSET 0.000000 0.000000 0.000000
									CHANNELS 3 Zrotation Yrotation Xrotation
									End Site
									{
										OFFSET 0.000000 0.000000 0.000000
									}
								}
							}
						}
					}
				}
			}
		}
	}
}
MOTION
Frames: 6
Frame Time: 0.008333
0.912703 18.273752 0.084672 0.859666 12.757436 31.988322 3.400614 6.122423 1.214113 -6.952707 -37.569309 -25.182147 -1.933987 -2.064181 -0.178312 -5.854208 25.782378 9.747249 0.642100 -5.126300 -14.269200 -0.029194 -6.541568 3.534833 -1.983613 35.922659 -32.536891 1.764705 -3.184698 12.371916 -0.781657 -17.198433 -38.981681 -6.228200 -14.645900 45.890800 1.819597 3.564124 10.555473 32.231125 5.425917 2.030652 -2.609699 3.077459 -11.937571 3.580908 -5.951161 0.827155 -19.571379 -10.868299 -14.587008 -6.213000 -4.423000 -6.345900 -16.690345 -2.622064 0.563641 -76.448342 3.686724 41.876841 139.196433 -49.614579 -99.756855 2.756846 -0.356619 23.225439 12.048070 18.968702 2.980100 -7.125000 0.000000 0.000000 -17.961500 47.752000 -1.258000 12.180970 5.400448 2.251609 60.201423 -0.951034 16.238235 -153.994178 32.218176 -112.553575 0.887827 -0.196357 30.439718 20.518042 4.037812 1.342100 7.125000 0.000000 0.000000 32.962600 -25.100000 19.105600 
0.918901 18.267154 0.064879 1.071662 13.022477 31.990756 3.407026 6.113496 1.207158 -7.025999 -37.929045 -25.213139 -1.922652 -2.076020 -0.185287 -5.835284 25.810996 9.939883 0.692400 -5.319300 -14.821400 -0.045493 -6.530508 3.564173 -2.091051 35.721107 -32.671641 1.754948 -3.288093 12.571885 -0.809644 -17.249101 -39.182575 -6.183800 -14.604200 45.715100 2.130614 3.655734 10.754033 32.552154 5.537752 2.173857 -2.562002 3.151194 -11.980780 3.554844 -6.032740 0.637774 -19.797436 -10.982548 -14.392582 -6.300900 -4.478300 -6.326800 -16.659690 -2.604550 0.565230 -76.665625 3.665147 41.798672 139.181825 -49.628478 -99.743416 2.780847 -0.375453 23.267865 12.331651 18.888723 3.051400 -7.125000 0.000000 0.000000 -17.701100 47.720800 -1.224600 12.146637 5.421096 2.277220 60.004226 -0.916836 15.834636 -154.032952 32.157339 -112.587829 0.866038 -0.158377 30.134819 20.064585 3.981613 1.285100 7.125000 0.000000 0.000000 32.736700 -25.207900 18.813300 
0.923599 18.257358 0.046185 1.214986 13.355328 32.077491 3.428209 6.096041 1.188739 -6.917004 -38.313481 -25.389650 -1.907322 -2.083857 -0.198925 -5.829361 25.860387 10.035622 0.685600 -5.293600 -14.748000 -0.068274 -6.508549 3.586839 -2.101526 35.497759 -32.887675 1.756294 -3.380511 12.744499 -0.762194 -17.560976 -39.349792 -6.033300 -14.460500 45.115200 2.507112 3.697996 10.827892 32.904056 5.616817 2.265553 -2.516992 3.204388 -11.939881 3.523722 -6.077522 0.547335 -20.029129 -11.073391 -14.269701 -6.393500 -4.516100 -6.338100 -16.631192 -2.603278 0.567535 -77.046468 3.690230 41.595601 139.194581 -49.633484 -99.743776 2.799394 -0.372928 23.297832 12.452468 18.996207 3.101500 -7.125000 0.000000 0.000000 -17.643900 47.831100 -1.269700 12.115242 5.437844 2.300619 59.799983 -0.842685 15.492199 -154.093096 32.073726 -112.631381 0.853993 -0.139396 30.033695 19.807267 3.966288 1.259300 7.125000 0.000000 0.000000 32.601900 -25.253000 18.659300 
0.929797 18.250760 0.031190 1.364439 13.650573 32.136226 3.440224 6.089302 1.187296 -6.852850 -38.676029 -25.503782 -1.894455 -2.095185 -0.205823 -5.817906 25.847304 10.069807 0.675200 -5.254200 -14.635000 -0.083671 -6.487938 3.610925 -2.190099 35.346251 -33.053416 1.743421 -3.477162 12.939893 -0.828073 -17.521025 -39.588498 -5.979700 -14.408700 44.900300 2.899618 3.721050 10.836609 33.222596 5.639699 2.485458 -2.488175 3.249562 -11.862106 3.460684 -6.109227 0.391400 -20.197797 -11.149104 -14.182405 -6.465000 -4.552400 -6.340200 -16.606260 -2.612802 0.561718 -77.415865 3.699793 41.380636 139.292678 -49.595180 -99.804702 2.822815 -0.366185 23.314154 12.600224 19.147557 3.166300 -7.125000 0.000000 0.000000 -17.580500 47.983100 -1.332500 12.089271 5.453976 2.314189 59.582397 -0.672039 15.179068 -154.146057 31.996890 -112.667364 0.847000 -0.139258 30.047522 19.733572 3.921804 1.240300 7.125000 0.000000 0.000000 32.573000 -25.296200 18.594500 
0.933896 18.249560 0.016495 1.626205 13.882970 32.173321 3.439007 6.085081 1.193545 -6.956047 -39.034410 -25.544201 -1.881792 -2.106283 -0.212015 -5.759863 25.764555 10.356177 0.735600 -5.479300 -15.280700 -0.092115 -6.468387 3.627172 -2.485016 35.310103 -33.177651 1.713181 -3.596723 13.197822 -1.032160 -17.164827 -40.047553 -6.058300 -14.484600 45.215300 3.200156 3.749057 10.931170 33.461172 5.652807 2.713645 -2.449430 3.290821 -11.852701 3.439173 -6.168592 0.207462 -20.406210 -11.247812 -14.067958 -6.546000 -4.599800 -6.334400 -16.586607 -2.605575 0.552744 -77.678046 3.757250 41.103291 139.340609 -49.564824 -99.859696 2.808346 -0.436058 23.286121 12.621200 18.461390 3.066600 -7.125000 0.000000 0.000000 -17.334200 47.388800 -1.052000 12.070654 5.471351 2.325427 59.390240 -0.530306 14.914037 -154.212574 31.912470 -112.708772 0.839175 -0.142839 30.091226 19.686669 3.850423 1.215200 7.125000 0.000000 0.000000 32.566500 -25.357900 18.530400 
0.935695 18.247261 0.000800 1.953832 14.152748 32.295819 3.440617 6.065434 1.187342 -7.043347 -39.449979 -25.689154 -1.863108 -2.112493 -0.227417 -5.655625 25.628987 10.882364 0.880000 -5.980100 -16.726800 -0.087711 -6.430939 3.621059 -2.934967 35.348327 -33.327030 1.667345 -3.731098 13.478933 -1.443834 -16.308748 -40.801434 -6.258800 -14.674500 46.011700 3.456220 3.759973 11.029274 33.674486 5.678863 2.802190 -2.408581 3.315985 -11.859215 3.449281 -6.232451 0.049912 -20.669564 -11.333420 -13.875668 -6.644800 -4.639200 -6.310900 -16.571101 -2.588809 0.548882 -77.928827 3.852058 40.808839 139.392330 -49.534752 -99.911943 2.790480 -0.486660 23.352586 12.517665 17.964431 2.959200 -7.125000 0.000000 0.000000 -17.260700 46.940100 -0.850900 12.054181 5.489051 2.344185 59.224776 -0.426363 14.649117 -154.262293 31.849349 -112.738548 0.829326 -0.150028 30.131868 19.668156 3.737414 1.179300 7.125000 0.000000 0.000000 32.587400 -25.450100 18.459400 
